<?xml version="1.0" encoding="UTF-8" standalone="no"?>
<!DOCTYPE svg PUBLIC "-//W3C//DTD SVG 1.1//EN" "http://www.w3.org/Graphics/SVG/1.1/DTD/svg11.dtd">
<svg width="25px" height="25px" viewBox="0 0 500 500" version="1.1" xmlns="http://www.w3.org/2000/svg" xmlns:xlink="http://www.w3.org/1999/xlink" xml:space="preserve" xmlns:serif="http://www.serif.com/" style="fill-rule:evenodd;clip-rule:evenodd;stroke-linejoin:round;stroke-miterlimit:1.41421;">
    <g id="Page-1" transform="matrix(19.2308,0,0,19.2308,0,-1.13687e-13)" style="enable-background:new 0 0 438.533 438.533; filter: invert(100%) sepia(5%) saturate(1173%) hue-rotate(352deg) brightness(105%) contrast(109%);"
	 xml:space="preserve"> 
        <path id="Fill-1" d="M13,0C9.469,0 9.027,0.015 7.64,0.078C6.256,0.141 5.311,0.361 4.484,0.682C3.63,1.015 2.905,1.459 2.182,2.182C1.459,2.905 1.015,3.63 0.682,4.485C0.361,5.311 0.141,6.256 0.078,7.64C0.015,9.027 0,9.469 0,13C0,16.531 0.015,16.973 0.078,18.36C0.141,19.744 0.361,20.689 0.682,21.515C1.015,22.37 1.459,23.095 2.182,23.818C2.905,24.541 3.63,24.985 4.484,25.318C5.311,25.639 6.256,25.859 7.64,25.922C9.027,25.985 9.469,26 13,26C16.531,26 16.973,25.985 18.36,25.922C19.744,25.859 20.689,25.639 21.515,25.318C22.37,24.985 23.095,24.541 23.818,23.818C24.541,23.095 24.985,22.37 25.317,21.515C25.639,20.689 25.859,19.744 25.922,18.36C25.985,16.973 26,16.531 26,13C26,9.469 25.985,9.027 25.922,7.64C25.859,6.256 25.639,5.311 25.317,4.485C24.985,3.63 24.541,2.905 23.818,2.182C23.095,1.459 22.37,1.015 21.515,0.682C20.689,0.361 19.744,0.141 18.36,0.078C16.973,0.015 16.531,0 13,0M13,2.342C16.471,2.342 16.882,2.356 18.253,2.418C19.52,2.476 20.209,2.688 20.667,2.866C21.274,3.102 21.707,3.383 22.162,3.838C22.617,4.293 22.898,4.726 23.134,5.333C23.312,5.791 23.524,6.479 23.582,7.747C23.644,9.118 23.658,9.529 23.658,13C23.658,16.471 23.644,16.882 23.582,18.253C23.524,19.521 23.312,20.209 23.134,20.667C22.898,21.274 22.617,21.707 22.162,22.162C21.707,22.617 21.274,22.898 20.667,23.134C20.209,23.312 19.52,23.524 18.253,23.582C16.882,23.644 16.471,23.658 13,23.658C9.529,23.658 9.117,23.644 7.747,23.582C6.479,23.524 5.791,23.312 5.333,23.134C4.726,22.898 4.293,22.617 3.838,22.162C3.383,21.707 3.102,21.274 2.866,20.667C2.688,20.209 2.476,19.521 2.418,18.253C2.356,16.882 2.342,16.471 2.342,13C2.342,9.529 2.356,9.118 2.418,7.747C2.476,6.479 2.688,5.791 2.866,5.333C3.102,4.726 3.383,4.293 3.838,3.838C4.293,3.383 4.726,3.102 5.333,2.866C5.791,2.688 6.479,2.476 7.747,2.418C9.118,2.356 9.529,2.342 13,2.342"/>
        <path id="Fill-4" d="M13,6C9.134,6 6,9.134 6,13C6,16.866 9.134,20 13,20C16.866,20 20,16.866 20,13C20,9.134 16.866,6 13,6M13,17.5C10.515,17.5 8.5,15.485 8.5,13C8.5,10.515 10.515,8.5 13,8.5C15.485,8.5 17.5,10.515 17.5,13C17.5,15.485 15.485,17.5 13,17.5"/>
        <path id="Fill-6" d="M21.7,6.1C21.7,6.984 20.984,7.7 20.1,7.7C19.216,7.7 18.5,6.984 18.5,6.1C18.5,5.216 19.216,4.5 20.1,4.5C20.984,4.5 21.7,5.216 21.7,6.1"/>
    </g>
</svg>
