<?xml version="1.0" encoding="UTF-8" standalone="no"?>
<!DOCTYPE svg PUBLIC "-//W3C//DTD SVG 1.1//EN" "http://www.w3.org/Graphics/SVG/1.1/DTD/svg11.dtd">
<svg width="25px" height="25px" viewBox="0 0 500 500" version="1.1" xmlns="http://www.w3.org/2000/svg" xmlns:xlink="http://www.w3.org/1999/xlink" xml:space="preserve" xmlns:serif="http://www.serif.com/" style="fill-rule:evenodd;clip-rule:evenodd;stroke-linejoin:round;stroke-miterlimit:1.41421;">
    <g id="Fill-11" transform="matrix(16.6667,0,0,16.6667,0,75)" style="enable-background:new 0 0 438.533 438.533; filter: invert(100%) sepia(5%) saturate(1173%) hue-rotate(352deg) brightness(105%) contrast(109%);"
	 xml:space="preserve">
        <path d="M29.7,4.552C29.7,4.552 29.407,2.485 28.508,1.574C27.367,0.379 26.088,0.373 25.502,0.304C21.304,0 15.006,0 15.006,0L14.993,0C14.993,0 8.696,0 4.498,0.304C3.912,0.373 2.633,0.379 1.492,1.574C0.593,2.485 0.3,4.552 0.3,4.552C0.3,4.552 0,6.98 0,9.407L0,11.583C0,14.011 0.3,16.438 0.3,16.438C0.3,16.438 0.593,18.506 1.492,19.416C2.633,20.611 4.132,20.573 4.8,20.699C7.2,20.929 15,21 15,21C15,21 21.304,20.99 25.502,20.687C26.088,20.617 27.367,20.611 28.508,19.416C29.407,18.506 29.7,16.438 29.7,16.438C29.7,16.438 30,14.011 30,11.583L30,9.407C30,6.98 29.7,4.552 29.7,4.552ZM11.903,14.441L11.901,6.012L20.008,10.242L11.903,14.441Z"/>
    </g>
</svg>
